<?xml version="1.0" standalone="no"?>
<!DOCTYPE svg PUBLIC "-//W3C//DTD SVG 20010904//EN"
 "http://www.w3.org/TR/2001/REC-SVG-20010904/DTD/svg10.dtd">
<svg version="1.0" xmlns="http://www.w3.org/2000/svg"
 width="700.000000pt" height="700.000000pt" viewBox="0 0 700.000000 700.000000"
 preserveAspectRatio="xMidYMid meet">
<metadata>
Created by potrace 1.11, written by Peter Selinger 2001-2013
</metadata>
<g transform="translate(0.000000,700.000000) scale(0.100000,-0.100000)"
fill="#000000" stroke="none">
<path d="M3278 6996 c-1 -2 -41 -6 -88 -10 -47 -4 -101 -9 -120 -12 -108 -15
-243 -38 -300 -51 -36 -8 -72 -16 -80 -18 -150 -33 -359 -101 -525 -170 -1020
-423 -1794 -1317 -2058 -2380 -24 -96 -52 -227 -61 -290 -2 -16 -8 -50 -12
-75 -7 -50 -9 -66 -21 -190 -16 -166 -9 -566 12 -717 10 -67 14 -99 20 -148 4
-27 10 -66 15 -85 5 -19 12 -48 14 -65 28 -156 113 -432 193 -625 142 -345
376 -714 633 -1000 91 -101 274 -277 359 -346 13 -10 28 -24 35 -29 29 -27
180 -138 261 -192 440 -293 960 -493 1450 -558 22 -2 56 -7 75 -10 196 -28
655 -27 850 1 447 65 769 164 1145 351 187 94 456 264 577 365 15 13 42 34 60
48 87 66 256 227 388 370 127 136 297 368 414 563 233 388 413 918 461 1362 4
33 9 71 11 85 9 48 11 525 4 605 -17 176 -22 220 -25 225 -2 3 -6 30 -10 60
-7 55 -58 298 -75 355 -159 538 -366 931 -704 1337 -111 133 -349 367 -476
467 -58 45 -114 89 -124 98 -40 32 -225 154 -321 210 -354 208 -807 370 -1200
429 -27 4 -57 9 -65 10 -8 2 -42 6 -76 9 -33 4 -74 9 -90 11 -33 5 -540 14
-546 10z m477 -451 c43 -4 86 -8 96 -10 10 -2 42 -6 71 -9 29 -4 64 -8 78 -11
14 -3 41 -8 60 -11 66 -12 245 -55 291 -70 25 -8 54 -16 65 -18 26 -5 246 -88
317 -120 794 -356 1388 -1010 1667 -1836 54 -161 104 -371 125 -531 3 -24 8
-60 10 -79 11 -80 19 -223 19 -345 0 -131 -10 -333 -19 -357 -2 -7 -6 -35 -9
-63 -7 -69 -13 -102 -42 -235 -73 -335 -192 -634 -365 -922 -63 -104 -193
-295 -215 -313 -6 -5 -18 -20 -25 -32 -37 -55 -204 -232 -330 -348 -129 -120
-305 -250 -476 -354 -99 -59 -301 -163 -373 -191 -19 -7 -53 -21 -75 -30 -140
-60 -398 -134 -572 -164 -142 -25 -234 -37 -323 -43 -581 -38 -1118 71 -1625
330 -786 401 -1372 1144 -1575 2001 -15 66 -31 141 -35 166 -3 25 -8 52 -10
60 -38 132 -52 679 -21 835 2 11 7 47 10 80 30 265 146 643 283 920 262 531
669 974 1173 1277 165 99 440 226 588 272 26 8 85 26 132 41 74 22 236 61 295
70 11 2 54 9 95 15 41 6 86 13 100 16 14 2 75 7 135 10 61 4 111 7 112 8 6 5
299 -2 368 -9z"/>
<path d="M3265 5744 c-502 -77 -813 -387 -829 -827 -6 -149 49 -293 158 -414
26 -28 46 -53 46 -56 0 -3 -24 -13 -52 -23 -70 -22 -249 -107 -313 -146 -313
-198 -560 -504 -670 -832 -52 -156 -69 -266 -69 -461 -1 -197 5 -262 36 -405
46 -216 160 -454 297 -625 128 -158 346 -345 491 -420 276 -142 486 -206 765
-231 99 -9 358 -9 445 0 407 41 723 169 1008 409 228 192 392 451 468 737 29
110 36 288 21 523 -20 301 -121 507 -312 633 l-56 38 53 19 c29 10 67 25 85
33 17 8 33 14 36 14 8 0 134 57 192 87 234 121 431 277 555 441 61 81 152 263
175 352 38 141 52 363 30 475 -53 272 -254 451 -524 468 -129 8 -211 -24 -304
-116 -144 -142 -167 -339 -53 -449 54 -52 154 -65 224 -29 53 27 75 61 75 115
0 66 -21 97 -81 126 -47 22 -52 28 -47 50 11 44 52 87 92 97 120 30 242 -33
296 -154 31 -70 41 -125 40 -221 -4 -239 -128 -452 -367 -631 -252 -189 -627
-353 -1156 -506 -69 -20 -132 -39 -140 -42 -8 -3 -19 -7 -25 -9 -53 -13 -206
-77 -320 -134 -257 -129 -441 -296 -534 -485 -91 -183 -123 -449 -72 -586 26
-70 91 -146 146 -170 92 -42 204 -7 257 81 24 41 32 129 17 185 -13 48 -84
117 -138 135 -26 8 -40 18 -37 26 3 7 10 32 16 56 69 254 368 520 655 581 105
23 280 16 371 -15 242 -81 391 -284 430 -584 54 -422 -106 -842 -406 -1064
-123 -91 -312 -164 -488 -187 -76 -10 -372 -10 -447 0 -70 10 -187 38 -265 65
-365 126 -692 452 -813 812 -55 160 -70 251 -72 433 -6 550 224 946 680 1175
94 47 259 101 399 131 55 11 115 29 135 39 81 42 58 107 -56 161 -187 89 -281
183 -340 340 -31 81 -38 130 -37 247 2 258 186 493 431 550 121 28 299 8 408
-46 136 -67 205 -170 270 -403 12 -46 23 -62 48 -77 40 -25 94 -41 113 -33 48
18 96 217 109 455 l4 79 -42 42 c-82 82 -221 135 -442 167 -122 18 -463 20
-570 4z"/>
</g>
</svg>
