<svg xmlns="http://www.w3.org/2000/svg" viewBox="0 0 696 696"><defs><style>.a,.c{fill:#363636;}.b{fill:#e0d7cd;}.c{font-size:74px;font-family:IBMPlexSans-Bold, IBM Plex Sans;font-weight:700;}</style></defs><title>iac-circle-logo</title><path class="a" d="M348,696A348.09,348.09,0,0,1,212.54,27.35a348.09,348.09,0,0,1,270.92,641.3A345.83,345.83,0,0,1,348,696Z"/><path class="b" d="M348,25A323,323,0,0,0,119.6,576.4,323,323,0,0,0,576.4,119.6,320.92,320.92,0,0,0,348,25Z"/><text class="c" transform="translate(158.8 204.61) rotate(-47.5)">I</text><text class="c" transform="translate(188.76 171.92) rotate(-34.25)">N</text><text class="c" transform="matrix(0.94, -0.33, 0.33, 0.94, 243.15, 134.89)">T</text><text class="c" transform="translate(295.49 116.34) rotate(-5.8)">E</text><text class="c" transform="translate(352.41 110.54) rotate(8.52)">R</text><text class="c" transform="translate(413.85 119.77) rotate(24.13)">N</text><text class="c" transform="translate(473.9 146.66) rotate(39.02)">E</text><text class="c" transform="matrix(0.61, 0.79, -0.79, 0.61, 518.36, 182.67)">T</text><path class="a" d="M431.5,282.21q0,69-89.56,99.57,25.56,13.39,28.84,48.77,1,10.86,1,27.54t-9.36,37a109.74,109.74,0,0,1-26.81,36q-39,35.39-98.93,35.38-64,0-104.23-38.66-39-37.41-39-93.5,0-40.18,25.55-72.78a124.25,124.25,0,0,1,62.24-42.71q-16.69-16.67-16.7-33.6t5.95-29.44a60.94,60.94,0,0,1,16.82-21.36q22.77-18.94,60.47-18.95,44,0,60.21,13.39,4.31,3.54,4.3,6.32t-.51,9.35a133.83,133.83,0,0,1-1.77,13.65q-2.78,17.43-7.59,17.43a14.67,14.67,0,0,1-7.21-2.27,9.3,9.3,0,0,1-4.68-6.82q-6.82-36.15-42.5-36.14-19.49,0-32.38,14.15-12.15,13.65-12.15,30.32,0,33.36,29.6,45.74,8.61,3.54,8.6,8.59t-16.31,7.84a107.71,107.71,0,0,0-32.51,11.37,97.09,97.09,0,0,0-27.58,21.48q-22.77,26.53-22.77,68,0,43.46,30.36,74,30.87,31.33,77.67,31.33,61,0,81.21-49.53a88.31,88.31,0,0,0,7.08-34.36q0-17.44-3.16-28.05a53.09,53.09,0,0,0-9.49-18.45q-14.16-17.44-38.7-17.44-22,0-41.49,15.92-19,15.17-23.53,36.39,14.67,4.54,14.67,17.44,0,7.83-4.68,12.25a16.45,16.45,0,0,1-11.76,4.43q-7.09,0-13.16-7.33t-6.07-19.21a89.85,89.85,0,0,1,3.41-24.13,62.84,62.84,0,0,1,13-23.63q20.75-25,70.08-38.91Q386,341.09,403.42,301.17q5.31-12.14,5.31-21.74t-1.9-14.91a27.85,27.85,0,0,0-4.93-8.84q-5.82-6.83-15.81-6.82t-11.51,10.61q10.62,2.28,10.62,10.61,0,5.82-3.67,8.72t-10.24,2.91a13.77,13.77,0,0,1-11-5.31,17.62,17.62,0,0,1-4.43-11.5A31.17,31.17,0,0,1,358,253.28a30.41,30.41,0,0,1,6.19-9.73q9.87-10.37,21-10.36t18.85,3a40.22,40.22,0,0,1,13.79,9.1Q431.51,259,431.5,282.21Z"/><path class="a" d="M579.5,451.5q10.88,0,16.93-7.07t6.07-20.26V407.83q0-13.18-6.07-20.26T579.5,380.5q-10.87,0-16.93,7.07t-6.07,20.26v16.34q0,13.18,6.07,20.26T579.5,451.5Zm.5,21a52.82,52.82,0,0,1-19.91-3.63,40.06,40.06,0,0,1-15.32-10.82A50.06,50.06,0,0,1,535,440.21a89.47,89.47,0,0,1,0-49.42A50.06,50.06,0,0,1,544.77,373a40.06,40.06,0,0,1,15.32-10.82,56.42,56.42,0,0,1,39.82,0A40.06,40.06,0,0,1,615.23,373,50.06,50.06,0,0,1,625,390.79a89.47,89.47,0,0,1,0,49.42,50.06,50.06,0,0,1-9.79,17.84,40.06,40.06,0,0,1-15.32,10.82A52.82,52.82,0,0,1,580,472.5Zm-100.88,0A54.25,54.25,0,0,1,459,469a39.93,39.93,0,0,1-15.26-10.58A48.8,48.8,0,0,1,434,440.84a78.46,78.46,0,0,1-3.46-24.55A81,81,0,0,1,434,391.58a51.79,51.79,0,0,1,9.76-18.16A40.71,40.71,0,0,1,459,362.29a51.21,51.21,0,0,1,20.14-3.79q15.25,0,25.17,6.24t15.9,19.65l-20.62,10.74A24.67,24.67,0,0,0,492.73,384q-4.65-4.19-13.61-4.18-10.55,0-16.92,6.86t-6.37,20v17.68q0,13.11,6.37,20t16.92,6.86q8.81,0,14.08-4.81A29.21,29.21,0,0,0,501,434.76l19.51,11.37q-6.13,12.63-16.13,19.5T479.12,472.5Zm-74.62,0q-7.15,0-10.58-3.5a12.25,12.25,0,0,1-3.42-8.94v-3.12a12.25,12.25,0,0,1,3.42-8.94q3.42-3.5,10.58-3.5t10.58,3.5a12.25,12.25,0,0,1,3.42,8.94v3.12a12.25,12.25,0,0,1-3.42,8.94Q411.66,472.5,404.5,472.5Z"/><path class="a" d="M626.71,81.24a33.07,33.07,0,0,1-12-11.95,31.86,31.86,0,0,1-4.42-16.46,31.88,31.88,0,0,1,4.42-16.46,33.07,33.07,0,0,1,12-11.95,32.86,32.86,0,0,1,32.92,0,33.07,33.07,0,0,1,12,11.95A31.88,31.88,0,0,1,676,52.83a31.86,31.86,0,0,1-4.42,16.46,33.07,33.07,0,0,1-12,11.95,32.86,32.86,0,0,1-32.92,0Z"/><path class="b" d="M656.21,75.54A26.22,26.22,0,0,0,665.6,66a26.58,26.58,0,0,0,0-26.26,26.3,26.3,0,0,0-9.39-9.58,25.56,25.56,0,0,0-26,0,26.25,26.25,0,0,0-9.4,9.58,26.64,26.64,0,0,0,0,26.26,26.17,26.17,0,0,0,9.4,9.58,25.5,25.5,0,0,0,26,0Z"/><path class="a" d="M630.77,68.88a2,2,0,0,1-.55-1.46V38.06a1.89,1.89,0,0,1,2-2h12.32a16.21,16.21,0,0,1,9.53,2.65q3.78,2.64,3.78,8.3a10.22,10.22,0,0,1-1.59,5.83,9.81,9.81,0,0,1-4.34,3.56l5.38,9.76a2.18,2.18,0,0,1,.37,1.27,2.16,2.16,0,0,1-.5,1.42,1.89,1.89,0,0,1-1.51.59h-4A3,3,0,0,1,649,67.7l-5-9.76h-5.56v9.48a2,2,0,0,1-.55,1.46,2,2,0,0,1-1.46.55h-4.2A1.94,1.94,0,0,1,630.77,68.88Z"/><path class="b" d="M644.44,51.1q5,0,5-4.1a4.11,4.11,0,0,0-1.18-3,5.29,5.29,0,0,0-3.84-1.19h-6v8.3Z"/></svg>