<?xml version="1.0" encoding="utf-8"?>
<!-- Generator: Adobe Illustrator 23.0.3, SVG Export Plug-In . SVG Version: 6.00 Build 0)  -->
<svg version="1.1" id="Layer_1" xmlns="http://www.w3.org/2000/svg" xmlns:xlink="http://www.w3.org/1999/xlink" x="0px" y="0px"
	 viewBox="0 0 2500 553" style="enable-background:new 0 0 2500 553;" xml:space="preserve">
<style type="text/css">
	.st0{fill:#4D4D4D;}
</style>
<title>Layer 1 copy</title>
<path class="st0" d="M2441.5,1c19.2-1,38.3-1,57.5-0.5c-57.5,120.1-113,241.2-169,361.8h-46.9c-25.7-60.5-56-119.6-82.7-180.1
	c18.7-0.5,37.3-0.5,56,0c16.1,37.3,35.3,73.2,50,110.5C2351.2,195.3,2397.6,98.4,2441.5,1z"/>
<path d="M997,52.5c36.8,0.5,74.2,0.5,111,0c-0.5,32.8-0.5,66.1,0,98.9c-36.8-0.5-74.2,0-111.5-0.5C997.5,118.1,996.5,85.3,997,52.5z
	 M438.4,193.8c75.7-42.9,185.7-28.3,236.6,45.9c31.3,43.9,40.4,99.4,39.9,151.9c-86.8,0.5-173.6,0-260.4,0.5
	c4,26.7,15.6,55,40.4,69.1c35.3,20.7,90.8,14.6,108.5-26.2c35.8-1,71.1-1,107,0c-11.1,40.9-40.9,75.7-78.2,94.9
	c-40.4,22.2-88.8,26.2-133.7,18.7c-47.4-7.6-91.3-34.3-118.1-74.2c-29.3-42.4-36.8-96.4-30.3-146.3C356.7,273,389.5,221,438.4,193.8
	L438.4,193.8z M497.4,256.8c-24.7,11.6-36.8,38.3-42.4,64.1h148.3c-3-19.7-10.1-40.4-25.2-54C557,246.2,523.2,245.7,497.4,256.8z
	 M1601.9,174.6c59.5-10.6,125.6,2,171.6,43.4c78.2,69.6,81.7,204.3,9.1,279c-57.5,60-153.9,71.1-227.6,37.3
	c-57-25.7-95.9-83.8-102.4-145.3c-2.5-35.8-1-72.7,13.6-106C1488.4,226,1542.4,184.7,1601.9,174.6L1601.9,174.6z M1614.5,256.8
	c-31.3,11.1-45.9,44.9-50.5,75.7c-3.5,38.3-3,81.7,21.7,113.5c26.7,34.8,85.8,33.8,112.5-0.5c22.2-27.8,25.7-65.6,23.2-99.9
	c-1.5-30.3-12.1-62.6-37.3-81.2C1664,250.8,1637.3,248.7,1614.5,256.8L1614.5,256.8z M1998,195.3c36.8-28.8,89.3-31.8,131.7-14.6
	c30.3,13.1,53,39.9,63.6,70.6c12.1,31.8,8.6,66.1,8.6,99.4c0,63.6-0.5,127.1,0.5,190.2c-36.8,0.5-73.7,0-111,0.5v-218
	c0-18.7-7.1-38.9-22.7-50.5c-23.7-16.1-58-13.1-78.2,7.1c-16.1,16.1-23.2,39.4-22.7,61.6v199.8c-36.3-0.5-73.2,0-109.5-0.5
	c0-120.1,0.5-240.2,0-360.3c35.8,0.5,71.1-0.5,107,0.5c-0.5,16.7-0.5,33.3-1,50C1975.3,219,1984.4,205.4,1998,195.3L1998,195.3z
	 M1,181.6h115c23.2,77.2,47.9,154.4,69.6,232.1c26.7-76.2,46.9-154.9,72.2-232.1c36.8-0.5,74.2,0,111-0.5
	C326.4,301.2,285,421.3,243.1,541.4c-38.3,0-76.7-0.5-115,0.5C84.2,422.3,45.4,300.7,1,181.6z M740.1,181.1h106
	c-0.5,20.2,0,40.4-1,60.5c9.1-10.1,15.6-22.7,25.2-32.3c23.7-26.2,62.6-36.8,96.9-27.8c-0.5,31.8-0.5,63.6,0,94.9
	c-27.2-3-57.5-2-80.7,14.6c-24.7,17.2-35.8,48.9-35.3,78.2c-0.5,57.5,0,114.5,0,172.1c-36.8,0-74.2-0.5-111,0.5
	C740.6,421.3,740.6,301.2,740.1,181.1L740.1,181.1z M997,181.6c37.3-0.5,74.2,0,111.5-0.5c-0.5,120.1,0,240.2,0,360.3
	c-36.8-0.5-74.2,0-111.5,0V181.6z M1138.2,181.1c100.4,0.5,200.8,0,300.7,0.5c-1,27.8,0,55-0.5,82.7c-3.5,7.1-9.6,12.1-14.1,18.2
	c-51.5,57-101.9,115.5-154.4,172.1c59,1,118.1,0,177.1,0.5v86.8c-102.9-0.5-205.9-0.5-308.8,0v-83.8c54-60.5,107.5-120.6,162-180.6
	c1.5-3,8.1-6.1,4.5-10.1c-55.5,1.5-111,0-166.5,1V181.1z"/>
</svg>
