<svg xmlns="http://www.w3.org/2000/svg" viewBox="0 0 128 128"><defs><style>.a{fill:#4d4d4d;}.b{fill:#747474;}</style></defs><title>Artboard 1</title><path class="a" d="M63.46,47.05l6-3.75c2.89-1.91,2.83-4.86-.06-6.73l-8.69-5.13c-.71-.41-.7-1.09,0-1.51l1.81-1.06a2.14,2.14,0,0,1,2.19.24L73.25,34l8.63,5c.78.44,1,1.12.25,1.57l-2,1.26a2,2,0,0,1-2-.22l-1-.56c.13,1.72-1.14,3.35-3,4.66l-9.17,5.83a2.88,2.88,0,0,1-2.87,0L44.91,40.71c-.71-.45-.79-1.14,0-1.59L47,37.91A1.7,1.7,0,0,1,49,38l14.5,9Z"/><path class="a" d="M41.75,51.45l-7,4.13a1.86,1.86,0,0,1-2.21.11l-2.07-1.42c-.7-.48-.62-.94.2-1.41l10.89-6.29a4.78,4.78,0,0,1,3.77,0L61.26,56.73a1.65,1.65,0,0,1,0,2.71L43.11,71a2.94,2.94,0,0,1-3,0L17,54.74c-.73-.58-.54-1,.3-1.47L20,51.78c.84-.47,1.3-.05,2,.42L40.58,65a3.17,3.17,0,0,0,2.73,0l10.2-6.23a.93.93,0,0,0,0-1.51l-9-5.83a3,3,0,0,0-2.74,0Z"/><path class="a" d="M16.54,64a4,4,0,0,0,1.4,2.6L40.08,82.3a2.92,2.92,0,0,0,3,0L61.88,70.14a2.94,2.94,0,0,1,3.15,0l18.8,12.13a3.65,3.65,0,0,0,3.4,0l16.91-12.16c5.16-3.64,5.56-9.38.28-12.62l-19.12-11a4,4,0,0,0-3.73,0L65.63,56.67a1.73,1.73,0,0,0,0,2.8L84,71a2.94,2.94,0,0,0,3,0l10.13-7.17a1,1,0,0,0,.08-1.7l-2.6-1.51a1.51,1.51,0,0,0-1.88.17l-6.47,4.31a2.86,2.86,0,0,1-2.85.09L72.91,58.69a.7.7,0,0,1-.38-.72,1.08,1.08,0,0,1,.58-.75l9.07-5.68a3.34,3.34,0,0,1,3.06,0l15,8.76c3.22,1.89,3,5,.15,7L87.07,76.65a3.06,3.06,0,0,1-3.08,0L65.07,64.49a3.2,3.2,0,0,0-3.17,0L43.18,76.66a3.46,3.46,0,0,1-3.18,0L16.54,60v4Z"/><path class="b" d="M101.63,90.16H99.05a.37.37,0,0,1-.41-.41V89.1a.37.37,0,0,1,.41-.41h3.89a.48.48,0,0,1,.48.49v6a.48.48,0,0,1-.48.48H96.87a.38.38,0,0,1-.42-.42V86.93a.37.37,0,0,1,.4-.41h.65a.37.37,0,0,1,.41.41v6.95a.32.32,0,0,0,.32.32h3.4a.32.32,0,0,0,.32-.32v-3.4a.32.32,0,0,0-.32-.32Z"/><path class="b" d="M95,90.87v4.38a.38.38,0,0,1-.41.42h-.64a.38.38,0,0,1-.41-.42v-.34a2.8,2.8,0,0,1-1.87.76H88.48a.49.49,0,0,1-.49-.48V89.12a.39.39,0,0,1,.42-.42h6.14a.38.38,0,0,1,.42.42v1.75Zm-5.51,3.34h2.08a2,2,0,0,0,2-1.93V90.35a.32.32,0,0,0-.32-.26H89.78a.33.33,0,0,0-.23.1.26.26,0,0,0-.09.19v3.83Z"/><path class="b" d="M86.53,95.25a.38.38,0,0,1-.41.42h-.76a.38.38,0,0,1-.3-.41V86.93a.39.39,0,0,1,.43-.41h.64a.37.37,0,0,1,.41.41v8.32Z"/><path class="b" d="M110.12,88.7h1.29a.37.37,0,0,1,.41.41v.65a.37.37,0,0,1-.41.4h-4.72a.32.32,0,0,0-.23.09.36.36,0,0,0-.09.23v.68a.34.34,0,0,0,.09.2.33.33,0,0,0,.23.1h4.7a.38.38,0,0,1,.42.42v3.38a.38.38,0,0,1-.42.42h-6.08a.38.38,0,0,1-.41-.42v-.64a.37.37,0,0,1,.41-.4H110a.36.36,0,0,0,.23-.09.32.32,0,0,0,.09-.23v-.69a.29.29,0,0,0-.09-.2.32.32,0,0,0-.23-.09h-4.7a.39.39,0,0,1-.42-.43V89.12a.38.38,0,0,1,.42-.42h4.79Z"/><path class="b" d="M67.38,94.21h2.09a2,2,0,0,0,2-1.93V89.1a.37.37,0,0,1,.41-.41h.65a.37.37,0,0,1,.41.41v6.15a.38.38,0,0,1-.41.42h-.65a.38.38,0,0,1-.41-.42v-.34a2.76,2.76,0,0,1-1.87.76H66.4a.49.49,0,0,1-.48-.48V89.1a.37.37,0,0,1,.41-.41H67a.37.37,0,0,1,.41.41v5.11Z"/><path class="b" d="M62.68,90.16H60.09a.37.37,0,0,1-.41-.41V89.1a.37.37,0,0,1,.41-.41H64a.49.49,0,0,1,.49.49v6a.49.49,0,0,1-.49.48H57.91a.38.38,0,0,1-.42-.42V86.93a.37.37,0,0,1,.41-.41h.64a.37.37,0,0,1,.41.41v6.95a.32.32,0,0,0,.32.32h3.41a.32.32,0,0,0,.32-.32v-3.4a.33.33,0,0,0-.32-.32Z"/><path class="b" d="M79.9,90.48a.32.32,0,0,0-.32-.32H76.16a.31.31,0,0,0-.32.32v3.41a.32.32,0,0,0,.32.33h2.6a.38.38,0,0,1,.41.42v.64a.37.37,0,0,1-.41.41h-3.9a.48.48,0,0,1-.48-.48V89.12a.38.38,0,0,1,.42-.42h6.14a.38.38,0,0,1,.42.42v6.59A3.12,3.12,0,0,1,78,98.61H76.6a.37.37,0,0,1-.41-.41v-.64a.37.37,0,0,1,.41-.41H78c1,0,1.94-.51,1.94-1.48V90.48Z"/></svg>