<?xml version="1.0" encoding="utf-8"?>
<!-- Generator: Adobe Illustrator 23.0.3, SVG Export Plug-In . SVG Version: 6.00 Build 0)  -->
<svg version="1.1" id="Layer_1" xmlns="http://www.w3.org/2000/svg" xmlns:xlink="http://www.w3.org/1999/xlink" x="0px" y="0px"
	 viewBox="0 0 2500 2500" style="enable-background:new 0 0 2500 2500;" xml:space="preserve">
<style type="text/css">
	.st0{fill-rule:evenodd;clip-rule:evenodd;fill:#5C5C5C;}
</style>
<path class="st0" d="M1247.7,1708.5c669.8,0,1212.9-205,1212.9-458.5s-543.1-459.3-1212.9-459.3C577.2,790.7,34.1,996.5,34.1,1250
	C34.1,1503.5,577.2,1708.5,1247.7,1708.5L1247.7,1708.5z M1247.7,1661.6c-643.2,0-1165.9-183.1-1165.9-411.6
	c0-227.7,522.7-413.2,1165.9-413.2c644.8,0,1166.7,185.5,1166.7,413.2C2414.4,1478.5,1892.5,1661.6,1247.7,1661.6z M1247.7,1629.5
	c623.6,0,1129.9-169.8,1129.9-379.5c0-208.9-506.2-378.7-1129.9-378.7c-624.4,0-1129.1,169.8-1129.1,378.7
	C118.6,1459.7,623.3,1629.5,1247.7,1629.5L1247.7,1629.5z M1543.5,1325.9c53.2-50.1,82.9-102.5,159.6-101.7
	c46.2,0.8,57.9,37.6,65.7,53.2l100.9-170.6h61.8l-167.4,296.6c-3.1,6.3-11,18-10.2,27.4c1.6,14.9,20.4,11,13.3,11
	c33.6-1.6,95.4-65.7,110.3-81.4c3.1-3.9,8.6-11,11.7-11c3.1,0,9.4,3.1,9.4,7.8c0,3.1-7,14.9-12.5,21.9
	c-31.3,39.1-82.9,99.4-141.6,100.9c-28.9,0-39.9-11.7-43.8-34.4c-13.3,11.7-58.7,32.1-104.8,32.1c-38.4-0.8-54-23.5-61.8-41.5
	c-7-14.9-10.2-36.8-4.7-58.7c-21.1,11-40.7,12.5-68.9,11.7c-32.9-0.8-53.2-15.7-63.4-54c-37.6,68.9-39.1,71.2-77.5,143.2h-66.5
	l85.3-144.8c11-19.6,16.4-35.2,20.3-51.6c2.4-9.4-4.7-18-14.9-18.8c-10.9,0-28.9,11-46.2,27.4c0,0-43.8,47-75.9,94.7
	c-30.5,45.4-82.9,97-140.1,97c-41.5,0-79-22.7-86.9-66.5c0,0-3.9,10.2-40.7,31.3c-3.1,1.6-10.9,6.3-13.3,4.7
	c-7.1-6.3-11-14.1-11.8-19.6c2.3,0.8,7-3.1,21.9-14.9c28.9-21.9,35.2-39.1,35.2-39.1c7-14.9,19.6-38.3,28.2-54.8
	c23.5-47,64.2-94.7,130.7-97c11,0,14.1,4.7,16.4,8.6c6.3,4.7,3.9,14.1,3.9,14.1c-47,7-79,34.4-98.6,61
	c-11.7,17.2-24.3,45.4-26.6,65.7c-4.7,35.2,11.7,58.7,36,64.2c45.4,7,82.9-25.8,112.7-76.7c7.8-13.3,13.3-47.7,13.3-66.5
	s-10.2-38.3-18-46.2c0-13.3,8.6-21.9,18.8-21.9c3.1,0,6.3,0,9.4,3.1c15.7,15.7,24.3,45.4,24.3,68.1c0,7.8,0,15.7-1.6,23.5
	c32.9-39.9,74.3-91.6,106.4-101.7c6.3-3.1,12.5-3.1,18.8-3.1c58.7-1.6,50.9,51.6,50.9,51.6c31.3-36,53.2-49.3,82.2-47.7
	c31.3,1.6,42.3,23.5,42.3,40.7c-0.8,20.3-15.6,43.8-41.4,44.6c-22.7,0-36-11-43.1-31.3c-14.9,5.5-21.9,15.7-25,36
	c-4.7,25.8,14.9,46.2,39.9,46.2C1509.1,1358.8,1527.9,1340,1543.5,1325.9L1543.5,1325.9z M1590.5,988.6c0,25-87.6,72.8-162,72.8
	c-115.8,0-236.3-55.6-291.8-68.1c-60.3-14.1-115-25.8-158.1-25.8c-151,0-218.3,65-215.2,124.4c1.6,24.3,21.1,39.9,50.1,34.4
	c31.3-5.5,75.1-35.2,86.1-61c2.3-5.5,8.6-6.3,11-4.7c4.7,3.9,3.1,9.4,3.1,9.4c-3.9,30.5-50.9,115-132.2,115
	c-45.4,0-75.9-42.3-75.1-83.7c0.8-77.5,79.8-155.7,274.6-155.7c36.8,0,78.2,3.1,123.6,11c52.4,9.4,183.1,31.3,289.5,32.9
	c39.1,0,89.2,1.6,129.9-4.7c43-7,33.6-8.6,50.9-8.6C1590.5,976.1,1590.5,982.4,1590.5,988.6L1590.5,988.6z M1706.3,1260.9
	c-27.4-3.1-61.8,20.3-90,54.8c-14.1,17.2-28.9,50.1-31.3,69.6c-3.1,19.6,2.4,39.1,9.4,44.6c7,5.5,38.4,21.9,86.9-27.4
	c27.4-27.4,54-72,54-72l-8.6-2.4C1743,1297.7,1739.9,1264.9,1706.3,1260.9z M1134.3,1168.6c0,8.6,11.7,15.7,21.9,16.4
	c-2.3,8.6-1.6,12.5-5.5,11.7c-23.5,0-32.9-22.7-32.9-22.7c-31.3,5.5-61.8,9.4-123.6,15.7c-155.7,252-204.2,293.4-299.7,293.4
	c-68.1,0-128.3-44.6-129.9-124.4c-0.8-48.5,38.3-108,111.1-126c8.6,0,11.7,3.1,11.7,7.8c0,3.1-3.1,7-10.2,10.2
	c-21.1,7.8-57.9,49.3-57.9,87.6c0,28.9,18,61,48.5,68.1c8.6,2.4,16.4,1.6,24.3,1.6c75.9,0,161.2-85.3,253.5-215.2
	c-14.9,0.8-78.2,7.8-93.9,25.8c-7,5.5-11.7,2.3-13.3-3.9c0-1.6,2.3-7,4.7-10.2c25-28.2,100.2-34.4,118.1-36.8
	c70.4-108,161.2-175.3,180-174.5c3.1,0,10.2,4.7,7,12.5c-0.8,1.6-8.6,10.2-11.7,12.5c-15.7,14.1-68.9,48.5-126.8,146.3
	c47-2.3,101.7-11.7,101.7-11.7s-3.1-10.2-3.1-18.8c2.3-33.6,21.9-54,47-50.1c14.1,2.3,23.5,14.1,23.5,26.6
	c0,13.3-10.2,32.9-20.3,42.3C1151.5,1158.4,1143.7,1163.9,1134.3,1168.6L1134.3,1168.6z M1130.4,1151.4c0,0,7.8,0.8,19.6-12.5
	c4.7-4.7,12.5-18.8,11-28.2c-0.8-4.7-3.1-10.2-8.6-9.4c-11.8,2.4-18.8,7.8-21.9,19.6C1126.4,1133.4,1128,1142,1130.4,1151.4
	L1130.4,1151.4z"/>
</svg>
