<svg xmlns="http://www.w3.org/2000/svg" viewBox="0 0 1114.43 225.45"><defs><style>.a{fill:#363636;}</style></defs><title>Asset 1</title><path class="a" d="M1028,18V207.45H18V18H1028m18-18H0V225.45H1046V0Z"/><path class="a" d="M802,69q0,27.92-36.3,40.28,10.35,5.42,11.69,19.73.4,4.4.41,11.14t-3.79,15a44.51,44.51,0,0,1-10.87,14.57Q747.35,184,723,184q-25.95,0-42.25-15.64Q665,153.23,665,130.53a46.47,46.47,0,0,1,10.36-29.44,50.41,50.41,0,0,1,25.22-17.28q-6.76-6.75-6.76-13.59a27.51,27.51,0,0,1,2.4-11.91A24.59,24.59,0,0,1,703,49.67Q712.28,42,727.55,42,745.4,42,752,47.42q1.74,1.42,1.74,2.55c0,.75-.07,2-.2,3.79s-.38,3.61-.72,5.52q-1.12,7-3.08,7a6,6,0,0,1-2.92-.92,3.76,3.76,0,0,1-1.9-2.76Q742.12,48,727.65,48a17,17,0,0,0-13.12,5.73A18,18,0,0,0,709.61,66q0,13.5,12,18.51Q725.09,86,725.09,88c0,1.37-2.2,2.42-6.61,3.17a44.06,44.06,0,0,0-13.18,4.6,39.49,39.49,0,0,0-11.18,8.69q-9.23,10.74-9.23,27.5a40.93,40.93,0,0,0,12.31,30q12.51,12.68,31.48,12.67,24.72,0,32.92-20a35.76,35.76,0,0,0,2.87-13.91,41,41,0,0,0-1.28-11.34,21.61,21.61,0,0,0-3.85-7.47q-5.75-7.05-15.69-7-8.92,0-16.82,6.44A25.45,25.45,0,0,0,717.3,136q5.94,1.85,6,7.05a6.49,6.49,0,0,1-1.9,5,6.67,6.67,0,0,1-4.77,1.79q-2.87,0-5.33-3a11.78,11.78,0,0,1-2.46-7.77,36.34,36.34,0,0,1,1.38-9.77,25.28,25.28,0,0,1,5.28-9.55q8.41-10.12,28.41-15.75,39.67-11.15,46.76-27.29a22.36,22.36,0,0,0,2.15-8.8,18.66,18.66,0,0,0-.77-6,11.28,11.28,0,0,0-2-3.58,8,8,0,0,0-6.41-2.76c-2.7,0-4.25,1.44-4.66,4.3q4.3.91,4.3,4.29a4.22,4.22,0,0,1-1.48,3.53,6.58,6.58,0,0,1-4.16,1.17,5.6,5.6,0,0,1-4.46-2.14A7.13,7.13,0,0,1,771.34,62a12.72,12.72,0,0,1,.87-4.71,12.37,12.37,0,0,1,2.51-3.93q4-4.2,8.51-4.19a21.14,21.14,0,0,1,7.64,1.22,16.33,16.33,0,0,1,5.59,3.68Q802,59.58,802,69Z"/><path class="a" d="M629.4,87.2v67.56H611.16V87.2H588.48V71h63.6V87.2ZM521.64,154.76V71h57V87.2H539.88v17.16h33.24v16.08H539.88v18.12h38.76v16.2Zm-61.32-39.6-8-16.8h-.36v56.4H434.76V71h19.92l22.92,39.6,8,16.8H486V71h17.16v83.76H483.24Zm-69-6.48a9.26,9.26,0,0,0,6.42-2.1,7.88,7.88,0,0,0,2.34-6.18V95.12a7.88,7.88,0,0,0-2.34-6.18,9.26,9.26,0,0,0-6.42-2.1h-19.2v21.84Zm-19.2,46.08H353.88V71H393.6A27.27,27.27,0,0,1,404,72.92a22.35,22.35,0,0,1,8,5.46,24.67,24.67,0,0,1,5.1,8.46,31.59,31.59,0,0,1,1.8,10.92,28.58,28.58,0,0,1-3.78,14.88,21.64,21.64,0,0,1-11.46,9.24l16.44,32.88H399.84L385.2,124H372.12Zm-91.08,0V71h57V87.2H299.28v17.16h33.24v16.08H299.28v18.12H338v16.2ZM245.88,87.2v67.56H227.64V87.2H205V71h63.6V87.2Zm-96.24,28-8-16.8h-.36v56.4H124.08V71H144l22.92,39.6,8,16.8h.36V71h17.16v83.76H172.56ZM69,154.76V140.24H79.8V85.52H69V71h39.84V85.52H98v54.72h10.8v14.52Z"/><path class="a" d="M942.76,140.44q8.28,0,12.9-5.4t4.62-15.48V107.08q0-10.08-4.62-15.48t-12.9-5.4q-8.28,0-12.9,5.4t-4.62,15.48v12.48q0,10.08,4.62,15.48T942.76,140.44Zm0,16.2a40.06,40.06,0,0,1-15.12-2.76A30.44,30.44,0,0,1,916,145.66a38.14,38.14,0,0,1-7.44-13.56,60.65,60.65,0,0,1-2.64-18.78,60.65,60.65,0,0,1,2.64-18.78A38.14,38.14,0,0,1,916,81a30.44,30.44,0,0,1,11.64-8.22,42.8,42.8,0,0,1,30.24,0A30.44,30.44,0,0,1,969.52,81,38.14,38.14,0,0,1,977,94.54a60.65,60.65,0,0,1,2.64,18.78A60.65,60.65,0,0,1,977,132.1a38.14,38.14,0,0,1-7.44,13.56,30.44,30.44,0,0,1-11.64,8.22A40.06,40.06,0,0,1,942.76,156.64Zm-76.32,0a41.53,41.53,0,0,1-15.36-2.7,30.45,30.45,0,0,1-11.64-8A37,37,0,0,1,832,132.58a59.5,59.5,0,0,1-2.64-18.66A61.37,61.37,0,0,1,832,95.14a39.29,39.29,0,0,1,7.44-13.8,31,31,0,0,1,11.64-8.46A39.23,39.23,0,0,1,866.44,70q11.64,0,19.2,4.74t12.12,14.94L882,97.84a18.7,18.7,0,0,0-5.22-8.46q-3.54-3.18-10.38-3.18-8,0-12.9,5.22t-4.86,15.18V120q0,10,4.86,15.18t12.9,5.22q6.72,0,10.74-3.66a22.24,22.24,0,0,0,5.94-8.82L898,136.6a37.23,37.23,0,0,1-12.3,14.82Q878.08,156.64,866.44,156.64Zm-56.88-.12q-5.4,0-8-2.7a9.58,9.58,0,0,1-2.58-6.9v-2.4a9.58,9.58,0,0,1,2.58-6.9q2.58-2.7,8-2.7t8,2.7a9.58,9.58,0,0,1,2.58,6.9v2.4a9.58,9.58,0,0,1-2.58,6.9Q815,156.52,809.56,156.52Z"/><path class="a" d="M1078.9,44.14a23.85,23.85,0,0,1-8.61-8.61,22.93,22.93,0,0,1-3.19-11.86,23,23,0,0,1,3.19-11.87,23.85,23.85,0,0,1,8.61-8.61,23.66,23.66,0,0,1,23.73,0,23.8,23.8,0,0,1,8.62,8.61,23.05,23.05,0,0,1,3.18,11.87,23,23,0,0,1-3.18,11.86,23.8,23.8,0,0,1-8.62,8.61,23.66,23.66,0,0,1-23.73,0Zm21.27-4.1a18.93,18.93,0,0,0,6.77-6.91,18.59,18.59,0,0,0,2.5-9.46,18.6,18.6,0,0,0-2.5-9.47,19,19,0,0,0-6.77-6.9,18.37,18.37,0,0,0-18.74,0,19,19,0,0,0-6.77,6.9,18.7,18.7,0,0,0-2.5,9.47,18.69,18.69,0,0,0,2.5,9.46,18.93,18.93,0,0,0,6.77,6.91,18.43,18.43,0,0,0,18.74,0Zm-18.34-4.8a1.47,1.47,0,0,1-.4-1.06V13a1.47,1.47,0,0,1,.4-1.06,1.42,1.42,0,0,1,1.05-.39h8.87a11.68,11.68,0,0,1,6.87,1.91q2.73,1.9,2.73,6a7.36,7.36,0,0,1-1.15,4.21,7.08,7.08,0,0,1-3.12,2.56l3.88,7a1.68,1.68,0,0,1,.26.92,1.51,1.51,0,0,1-.36,1,1.32,1.32,0,0,1-1.08.43h-2.9a2.15,2.15,0,0,1-1.9-1.25l-3.62-7h-4v6.83a1.35,1.35,0,0,1-1.45,1.45h-3A1.42,1.42,0,0,1,1081.83,35.24Zm9.86-12.82q3.61,0,3.61-3a2.93,2.93,0,0,0-.85-2.17,3.79,3.79,0,0,0-2.76-.86h-4.34v6Z"/></svg>