<?xml version="1.0" encoding="utf-8"?>
<!-- Generator: Adobe Illustrator 23.0.3, SVG Export Plug-In . SVG Version: 6.00 Build 0)  -->
<svg version="1.1" id="Layer_1" xmlns="http://www.w3.org/2000/svg" xmlns:xlink="http://www.w3.org/1999/xlink" x="0px" y="0px"
	 viewBox="0 0 2500 664" style="enable-background:new 0 0 2500 664;" xml:space="preserve">
<style type="text/css">
	.st0{fill:#A4A4A4;}
	.st1{fill:#757575;}
</style>
<path class="st0" d="M297.6,0.2h211.6v660.9H297.6L297.6,0.2L297.6,0.2z M0.4,0.2h211.3v660.9H0.4V0.2z M991.8,0.2h211.6v660.9
	H991.8V0.2z M1560.4,0.2H1772v660.9h-211.6V0.2z M2135.5,0.2H2347v660.9h-211.6V0.2z"/>
<path class="st1" d="M508.5,0.2h271.7v211.4H508.5V0.2z M508.5,271.1h185.8v211.6H508.5V271.1z M839.8,0.2h155.4v211.4H839.8V0.2z
	 M1200.7,0.2h155.4v211.4h-155.4V0.2z M1408.3,0.2h155.4v211.4h-155.4V0.2z M1769.3,0.2h155.4v211.4h-155.4V0.2z M1983.5,0.2h155.4
	v211.4h-155.4V0.2z M2344.5,0.2h155.4v211.4h-155.4V0.2z"/>
<path d="M991.8,0.2h211.6v211.4H991.8V0.2z M1560.4,0.2H1772v211.4h-211.6V0.2z M2135.6,0.2h211.6v211.4h-211.6V0.2z M297.6,0.2
	h211.6v211.4H297.6L297.6,0.2L297.6,0.2z M297.6,271.1h211.6v211.6H297.6L297.6,271.1L297.6,271.1z"/>
</svg>
